PathFileType	4	(X/Y/Z)	/Users/itak/Documents/Research/Walk-IL/dataset/trc/00246_00009.trc
DataRate	CameraRate	NumFrames	NumMarkers	Units	OrigDataRate	OrigDataStartFrame	OrigNumFrames
100.000000	100.000000	4	53	mm	100.000000	627	837
Frame#	Time	RPSI			LPSI			L3			STRN			T10			C7			CLAV			RBAK			LBAK			LSHO			LUPA			LAEL			LAOL			LWTS			LWPS			LFRA			LIFD			LHPS			LHTS			RSHO			RUPA			RAEL			RAOL			RWTS			RWPS			RFRA			RIFD			RHTS			RHPS			RBHD			LFHD			RFHD			LBHD			LHIP			RHIP			RASI			LASI			LKNE			LTHI			LANK			LTIP			LTOE			LMT1			LMT5			LHEE			RKNE			RTHI			RANK			RTIP			RTOE			RMT1			RMT5			RHEE			
		X1	Y1	Z1	X2	Y2	Z2	X3	Y3	Z3	X4	Y4	Z4	X5	Y5	Z5	X6	Y6	Z6	X7	Y7	Z7	X8	Y8	Z8	X9	Y9	Z9	X10	Y10	Z10	X11	Y11	Z11	X12	Y12	Z12	X13	Y13	Z13	X14	Y14	Z14	X15	Y15	Z15	X16	Y16	Z16	X17	Y17	Z17	X18	Y18	Z18	X19	Y19	Z19	X20	Y20	Z20	X21	Y21	Z21	X22	Y22	Z22	X23	Y23	Z23	X24	Y24	Z24	X25	Y25	Z25	X26	Y26	Z26	X27	Y27	Z27	X28	Y28	Z28	X29	Y29	Z29	X30	Y30	Z30	X31	Y31	Z31	X32	Y32	Z32	X33	Y33	Z33	X34	Y34	Z34	X35	Y35	Z35	X36	Y36	Z36	X37	Y37	Z37	X38	Y38	Z38	X39	Y39	Z39	X40	Y40	Z40	X41	Y41	Z41	X42	Y42	Z42	X43	Y43	Z43	X44	Y44	Z44	X45	Y45	Z45	X46	Y46	Z46	X47	Y47	Z47	X48	Y48	Z48	X49	Y49	Z49	X50	Y50	Z50	X51	Y51	Z51	X52	Y52	Z52	X53	Y53	Z53	

628	6.27	666.58056640625	1035.45556640625	239.2999877929688	775.8802490234375	1044.81591796875	288.6980285644531	739.0254516601562	1124.8291015625	264.6807250976562	646.1859130859375	1307.813842773438	500.7119445800781	734.797607421875	1251.047973632812	261.1458129882812	717.3818359375	1511.860107421875	324.0743713378906	655.8827514648438	1425.5625	477.0807495117188	674.363037109375	1376.055053710938	224.5325775146484	826.9996948242188	1471.376831054688	344.1976013183594	845.8787841796875	1471.593383789062	446.9957580566406	932.3226318359375	1357.709838867188	454.1355590820312	965.2125244140625	1154.12548828125	502.939208984375	947.531494140625	1124.389038085938	422.4183044433594	879.8577880859375	936.9833374023438	609.3933715820312	962.226806640625	922.9027099609375	618.394287109375	970.7801513671875	1053.690307617188	547.9212036132812	890.2040405273438	747.3659057617188	655.4417724609375	954.5714721679688	839.787353515625	650.5608520507812	888.8500366210938	846.147705078125	668.9801635742188	537.9539794921875	1474.508544921875	317.8027038574219	481.791748046875	1412.413818359375	272.8687438964844	446.5131225585938	1134.785278320312	226.6768646240234	541.1859741210938	1123.98046875	231.2703704833984	420.62841796875	928.7498168945312	377.4059753417969	383.6736755371094	911.6680908203125	302.7852478027344	421.26025390625	1067.617553710938	247.0099029541016	409.5809631347656	737.6863403320312	403.8104248046875	383.0222778320312	811.75927734375	413.2522583007812	358.8470153808594	809.017578125	344.2015991210938	653.6239624023438	1670.604858398438	352.1941528320312	666.659912109375	1703.04931640625	576.6122436523438	573.5420532226562	1700.473754882812	539.3134765625	760.0177612304688	1677.35986328125	443.4920654296875	865.1524047851562	987.4046630859375	438.6514892578125	529.9141845703125	996.082275390625	286.1812133789062	526.1909790039062	1042.365600585938	389.920654296875	780.841796875	1028.233642578125	511.4538879394531	788.0951538085938	506.8174133300781	499.6441040039062	823.4553833007812	648.5397338867188	490.716064453125	810.337158203125	27.43043327331543	422.2698669433594	807.0199584960938	277.3045959472656	464.2825622558594	644.0747680664062	37.47002792358398	573.4224853515625	646.95166015625	36.95872497558594	493.9999694824219	756.3263549804688	27.90862083435059	539.1373901367188	798.03125	37.50892639160156	343.5849914550781	504.4890441894531	510.1900939941406	401.9865112304688	490.2881774902344	778.1378784179688	360.3293151855469	645.4769287109375	123.059928894043	130.0416259765625	531.744140625	398.1819763183594	373.2945556640625	603.64306640625	52.34772109985352	320.8104553222656	665.35302734375	66.65252685546875	290.2013244628906	581.1693725585938	73.8819580078125	206.5858917236328	719.4278564453125	151.5400390625	102.2943801879883	
629	6.28	667.09033203125	1035.592407226562	243.1991271972656	775.8187255859375	1044.7734375	293.8645629882812	739.5178833007812	1124.968872070312	269.6755065917969	643.929931640625	1307.845581054688	504.8909606933594	735.6612548828125	1251.301879882812	266.1337890625	717.375732421875	1512.043823242188	329.2601013183594	653.8050537109375	1425.588500976562	481.334716796875	675.7662963867188	1376.350463867188	228.9959259033203	826.7572631835938	1471.558715820312	350.8564453125	844.1392211914062	1471.77001953125	453.8934020996094	930.3865356445312	1357.94921875	462.7078552246094	962.2155151367188	1154.62646484375	513.4346923828125	946.0285034179688	1124.351440429688	432.8540344238281	873.9190063476562	938.7235717773438	619.9686889648438	956.1411743164062	924.4546508789062	630.839111328125	966.571044921875	1054.558349609375	559.3696899414062	882.707275390625	749.5762939453125	668.2376708984375	947.5101318359375	841.6908569335938	663.6461791992188	881.5377197265625	848.5097045898438	680.8219604492188	538.05859375	1474.641967773438	320.5212097167969	482.6085510253906	1412.457641601562	274.7844543457031	448.3236999511719	1134.77490234375	227.8172454833984	542.9989624023438	1124.217041015625	233.6780090332031	420.5731201171875	929.625	379.3160400390625	384.7235412597656	911.9453735351562	304.2520446777344	422.8736267089844	1067.657592773438	248.0586853027344	409.4259643554688	738.81884765625	406.9960632324219	382.5481872558594	812.8859252929688	415.4541625976562	359.4900512695312	809.5650634765625	346.0775146484375	653.0654296875	1670.764892578125	356.7685241699219	663.3287963867188	1702.895874023438	581.37890625	570.6172485351562	1700.300659179688	542.8976440429688	758.2861328125	1677.473876953125	449.3864440917969	863.4497680664062	987.1077270507812	444.6273803710938	529.7823486328125	996.67919921875	288.7974548339844	525.2930297851562	1042.819091796875	392.3677978515625	778.4896240234375	1028.042602539062	516.6419677734375	787.0015258789062	506.2005615234375	502.1947326660156	821.9972534179688	648.1539306640625	494.4828186035156	810.0551147460938	27.50605773925781	422.2820739746094	806.3517456054688	277.0219421386719	465.5814819335938	643.913330078125	37.35383605957031	573.5506591796875	646.8863525390625	36.8568229675293	494.0426635742188	756.2861328125	27.91891288757324	539.1414794921875	797.9341430664062	37.80243301391602	343.5809936523438	501.2034606933594	511.4429626464844	407.3013916015625	488.4539184570312	779.1365966796875	363.1211242675781	642.9912109375	117.3764877319336	145.3224334716797	528.0744018554688	398.6473083496094	380.705322265625	596.6376953125	52.62614822387695	337.053955078125	659.0576782226562	64.97584533691406	307.1892395019531	576.5781860351562	71.35689544677734	221.9728240966797	717.7532348632812	144.0657958984375	118.19921875	
630	6.29	667.5232543945312	1035.657104492188	247.0464324951172	775.6882934570312	1044.702880859375	298.9375915527344	739.9160766601562	1125.048950195312	274.586181640625	641.685546875	1307.805419921875	509.0401306152344	736.4195556640625	1251.4921875	271.071533203125	717.2891235351562	1512.172607421875	334.4010620117188	651.720458984375	1425.549194335938	485.5555725097656	677.097412109375	1376.583374023438	233.4353332519531	826.421142578125	1471.673461914062	357.4481506347656	842.3321533203125	1471.872436523438	460.6988830566406	928.359375	1358.11279296875	471.135986328125	959.126708984375	1155.057373046875	523.707275390625	944.4148559570312	1124.258666992188	443.1014709472656	867.8159790039062	940.48291015625	630.3468627929688	949.8416137695312	925.968017578125	642.9983520507812	962.2241821289062	1055.3662109375	570.5720825195312	874.8589477539062	751.84619140625	680.843017578125	940.1732788085938	843.5942993164062	676.4712524414062	873.99072265625	850.9280395507812	692.4119873046875	538.108154296875	1474.687744140625	323.2398376464844	483.3735656738281	1412.42236328125	276.7155456542969	450.0706787109375	1134.708129882812	229.0037078857422	544.7904663085938	1124.43896484375	235.9779663085938	420.5974426269531	930.3483276367188	381.164306640625	385.7626342773438	912.1189575195312	305.72021484375	424.4401245117188	1067.60888671875	249.1469573974609	409.405517578125	739.780517578125	410.0223388671875	382.2453002929688	813.842041015625	417.5743103027344	360.1741943359375	809.9827270507812	347.915283203125	652.4554443359375	1670.8486328125	361.28466796875	659.9727172851562	1702.706298828125	586.0488891601562	567.6737060546875	1700.0947265625	546.392333984375	756.4900512695312	1677.52587890625	455.1965026855469	861.6807861328125	986.7896728515625	450.5132446289062	529.6249389648438	997.1474609375	291.3629150390625	524.3327026367188	1043.17578125	394.7821044921875	776.0275268554688	1027.789916992188	521.6854858398438	785.8596801757812	505.5868530273438	504.773193359375	820.4644165039062	647.7684326171875	498.27099609375	809.7857666015625	27.57599449157715	422.2995910644531	805.67138671875	276.7374877929688	466.8728942871094	643.7822875976562	37.25841903686523	573.6961669921875	646.8256225585938	36.77556610107422	494.0877075195312	756.2540893554688	27.91930198669434	539.1564331054688	797.8422241210938	38.13201904296875	343.5924987792969	497.8905944824219	512.61279296875	412.4334716796875	486.6000671386719	780.0081176757812	365.7671508789062	639.9375610351562	111.4590835571289	160.8796691894531	524.273193359375	398.9908752441406	388.0261535644531	589.4708862304688	52.85659790039062	353.4952392578125	652.506591796875	63.25992584228516	324.3084411621094	571.5945434570312	68.64994049072266	237.6627960205078	715.4346313476562	136.3627319335938	134.3189849853516	
631	6.3	667.8904418945312	1035.656982421875	250.8450012207031	775.4978637695312	1044.60791015625	303.9258117675781	740.2293090820312	1125.084716796875	279.407470703125	639.4312744140625	1307.693481445312	513.1175537109375	737.0674438476562	1251.6328125	275.9640197753906	717.115478515625	1512.252807617188	339.5008544921875	649.6334838867188	1425.453491210938	489.7520446777344	678.346435546875	1376.7666015625	237.8514556884766	825.987548828125	1471.731323242188	363.9759521484375	840.4502563476562	1471.906372070312	467.4151306152344	926.2335205078125	1358.208251953125	479.4233093261719	955.9423217773438	1155.4228515625	533.7583618164062	942.6801147460938	1124.116333007812	453.1565551757812	861.561279296875	942.2380981445312	640.4783325195312	943.3431396484375	927.4401245117188	654.8568725585938	957.7401123046875	1056.116577148438	581.5235595703125	866.6840209960938	754.16748046875	693.2142333984375	932.5844116210938	845.4930419921875	689.01025390625	866.2222290039062	853.3912353515625	703.7208862304688	538.0940551757812	1474.659301757812	325.9569396972656	484.0800170898438	1412.326416015625	278.6588134765625	451.7806091308594	1134.597534179688	230.226318359375	546.594482421875	1124.674194335938	238.1748809814453	420.6777954101562	930.9249877929688	382.9433898925781	386.7847290039062	912.2022705078125	307.1701354980469	425.9746398925781	1067.482177734375	250.2705688476562	409.4904479980469	740.5664672851562	412.8711853027344	382.0767517089844	814.6311645507812	419.5874328613281	360.8785095214844	810.275390625	349.6837463378906	651.7910766601562	1670.86376953125	365.744384765625	656.597412109375	1702.484497070312	590.6270751953125	564.7117919921875	1699.863891601562	549.8001098632812	754.6349487304688	1677.517578125	460.9261474609375	859.850341796875	986.4578247070312	456.3192138671875	529.4601440429688	997.5110473632812	293.8585205078125	523.3175048828125	1043.440307617188	397.1567687988281	773.4662475585938	1027.4921875	526.59765625	784.6634521484375	504.9818725585938	507.3817443847656	818.8411865234375	647.3873901367188	502.0873107910156	809.5299072265625	27.64299583435059	422.3229675292969	804.9795532226562	276.4546813964844	468.1575012207031	643.677734375	37.1778678894043	573.8582153320312	646.7677001953125	36.71016311645508	494.1363830566406	756.2291259765625	27.91526985168457	539.1834106445312	797.7493896484375	38.48093795776367	343.6168212890625	494.5420227050781	513.7117919921875	417.3701171875	484.7216491699219	780.7664184570312	368.2856140136719	636.3196411132812	105.4391479492188	176.6502380371094	520.3080444335938	399.2663269042969	395.2178955078125	581.99609375	53.08785629272461	370.0061645507812	645.58203125	61.55020904541016	341.5000610351562	566.1534423828125	65.87628936767578	253.5207366943359	712.5213012695312	128.5439453125	150.6502075195312	
